<svg width="82" height="20" xmlns="http://www.w3.org/2000/svg"><path d="M13.184.667c-3.008-1.15-6.587-.801-9.271.965-.616.446-1.188.95-1.707 1.5A8.21 8.21 0 00.156 7.18c-.127.7-.198 1.42-.095 2.13.106.865.35 1.714.713 2.51.763 1.8 2.065 3.372 3.69 4.501.477.425 1.044.735 1.576 1.089a23.043 23.043 0 005.11 2.388c.042-.883-.047-1.768.049-2.65a9.689 9.689 0 005.43-2.754c.502-.442.874-1 1.216-1.564.487-.747.791-1.595.993-2.454a7.885 7.885 0 00-.364-4.653c-.59-1.494-1.64-2.794-2.928-3.776a11.493 11.493 0 00-2.362-1.28z" fill="red"/><path d="M13.34 3.642c1.1.689 1.992 1.703 2.477 2.892.367.887.488 1.865.374 2.813a5.877 5.877 0 01-.91 2.472c-.719 1.11-1.759 1.991-2.893 2.682-1.477.892-3.116 1.51-4.8 1.917-.025-.643.029-1.287-.038-1.928a6.968 6.968 0 01-3.395-2.172c-.412-.583-.791-1.2-1.023-1.875-.107-.302-.159-.618-.219-.93a5.395 5.395 0 01.33-2.981 6.005 6.005 0 011.172-1.817c1.008-1.09 2.412-1.807 3.891-2.05 1.724-.293 3.565.04 5.035.977zM20.894 5.438h5.654v8.33l6.291-8.33h2.827L31.03 11.61l6.076 8.215h-6.37l-3.247-4.519-.94 1.277v3.232h-5.654V5.438zm20.28 3.193c-.482 0-.9-.052-1.252-.155a2.438 2.438 0 01-.851-.426 1.752 1.752 0 01-.49-.638 2.006 2.006 0 01-.156-.794c0-.277.053-.538.157-.783.104-.246.267-.458.489-.64.222-.186.506-.331.851-.434.352-.104.77-.155 1.252-.155.49 0 .907.051 1.253.155.345.103.63.248.85.435.23.18.395.393.5.639.104.245.156.506.156.783 0 .284-.052.549-.156.794-.105.238-.27.451-.5.638-.22.181-.505.323-.85.426-.346.103-.764.155-1.253.155zm-2.651 1.596h5.313v9.59h-5.313v-9.59zm7.093-4.79h6.193l2.485 9.241 1.595-5.447-1.184-3.793h6.193l2.289 9.24 2.407-9.24 2.553-.01-4.354 14.388-4.608-.01-2.152-6.898-2.133 6.908-4.608-.01-4.676-14.368zm23.402 9.532c0-.555.088-1.061.264-1.52.176-.457.417-.867.724-1.228a4.92 4.92 0 011.105-.958c.424-.271.884-.497 1.38-.678a8.736 8.736 0 011.555-.406 9.973 9.973 0 011.644-.136 8.2 8.2 0 011.986.223c.6.142 1.132.339 1.595.59.47.252.873.546 1.213.88.345.336.63.694.85 1.075.23.374.395.761.5 1.161.11.4.166.79.166 1.17l-7.396.881c.144.716.43 1.271.86 1.665.431.393 1.035.59 1.81.59.425 0 .82-.052 1.185-.155.371-.103.662-.23.87-.377l.783 1.354a8.278 8.278 0 01-.792.348c-.281.11-.594.207-.94.29-.339.078-.717.14-1.134.185-.411.051-.865.077-1.36.077-1.187 0-2.212-.135-3.072-.406-.861-.278-1.575-.645-2.143-1.103-.56-.465-.978-1-1.252-1.607a4.697 4.697 0 01-.401-1.915zm8.237-.813c0-.839-.107-1.448-.323-1.829-.208-.38-.521-.57-.939-.57-.215 0-.414.05-.596.154a1.3 1.3 0 00-.47.484c-.13.22-.235.503-.313.851-.079.342-.12.758-.127 1.248l2.768-.338z" fill="#fff"/><path d="M6.01 9.908a.996.996 0 001.002-.99.996.996 0 00-1.001-.992.996.996 0 00-1.002.991c0 .547.448.991 1.002.991zM9.016 9.908a.996.996 0 001.002-.99.996.996 0 00-1.002-.992.996.996 0 00-1.001.991c0 .547.448.991 1.001.991zM12.021 9.908a.996.996 0 001.002-.99.996.996 0 00-1.002-.992.996.996 0 00-1.002.991c0 .547.45.991 1.002.991z" fill="red"/></svg>